<svg xmlns="http://www.w3.org/2000/svg" width="600" height="400"><path d="M320,216L249,226L325,247Z" fill="rgb(13,17,17)" stroke="rgb(13,17,17)" stroke-width="1.51"/><path d="M249,226L284,290L325,247Z" fill="rgb(25,27,27)" stroke="rgb(25,27,27)" stroke-width="1.51"/><path d="M284,290L337,342L325,247Z" fill="rgb(31,42,44)" stroke="rgb(31,42,44)" stroke-width="1.51"/><path d="M249,226L262,323L284,290Z" fill="rgb(38,37,37)" stroke="rgb(38,37,37)" stroke-width="1.51"/><path d="M249,226L169,288L262,323Z" fill="rgb(49,40,39)" stroke="rgb(49,40,39)" stroke-width="1.51"/><path d="M168,148L192,219L249,226Z" fill="rgb(35,15,8)" stroke="rgb(35,15,8)" stroke-width="1.51"/><path d="M320,216L263,104L249,226Z" fill="rgb(23,8,4)" stroke="rgb(23,8,4)" stroke-width="1.51"/><path d="M325,247L377,178L320,216Z" fill="rgb(16,21,22)" stroke="rgb(16,21,22)" stroke-width="1.51"/><path d="M262,323L337,342L284,290Z" fill="rgb(36,48,51)" stroke="rgb(36,48,51)" stroke-width="1.51"/><path d="M325,247L434,253L377,178Z" fill="rgb(25,34,35)" stroke="rgb(25,34,35)" stroke-width="1.51"/><path d="M377,178L346,134L320,216Z" fill="rgb(26,21,20)" stroke="rgb(26,21,20)" stroke-width="1.51"/><path d="M192,219L169,288L249,226Z" fill="rgb(46,30,27)" stroke="rgb(46,30,27)" stroke-width="1.51"/><path d="M346,134L263,104L320,216Z" fill="rgb(31,15,9)" stroke="rgb(31,15,9)" stroke-width="1.51"/><path d="M132,221L151,266L192,219Z" fill="rgb(57,30,26)" stroke="rgb(57,30,26)" stroke-width="1.51"/><path d="M192,219L151,266L169,288Z" fill="rgb(60,37,33)" stroke="rgb(60,37,33)" stroke-width="1.51"/><path d="M337,342L434,253L325,247Z" fill="rgb(35,50,53)" stroke="rgb(35,50,53)" stroke-width="1.51"/><path d="M405,81L320,78L346,134Z" fill="rgb(61,32,27)" stroke="rgb(61,32,27)" stroke-width="1.51"/><path d="M263,104L168,148L249,226Z" fill="rgb(44,18,11)" stroke="rgb(44,18,11)" stroke-width="1.51"/><path d="M262,323L261,389L337,342Z" fill="rgb(47,61,64)" stroke="rgb(47,61,64)" stroke-width="1.51"/><path d="M172,346L261,389L262,323Z" fill="rgb(67,67,67)" stroke="rgb(67,67,67)" stroke-width="1.51"/><path d="M168,148L132,221L192,219Z" fill="rgb(46,18,11)" stroke="rgb(46,18,11)" stroke-width="1.51"/><path d="M169,288L172,346L262,323Z" fill="rgb(69,57,55)" stroke="rgb(69,57,55)" stroke-width="1.51"/><path d="M130,365L172,346L169,288Z" fill="rgb(87,66,63)" stroke="rgb(87,66,63)" stroke-width="1.51"/><path d="M130,365L169,288L75,324Z" fill="rgb(95,66,61)" stroke="rgb(95,66,61)" stroke-width="1.51"/><path d="M346,134L320,78L263,104Z" fill="rgb(48,20,15)" stroke="rgb(48,20,15)" stroke-width="1.51"/><path d="M434,118L346,134L377,178Z" fill="rgb(47,33,31)" stroke="rgb(47,33,31)" stroke-width="1.51"/><path d="M337,342L434,350L434,253Z" fill="rgb(49,72,76)" stroke="rgb(49,72,76)" stroke-width="1.51"/><path d="M261,389L333,416L337,342Z" fill="rgb(51,74,79)" stroke="rgb(51,74,79)" stroke-width="1.51"/><path d="M406,381L434,350L337,342Z" fill="rgb(57,86,91)" stroke="rgb(57,86,91)" stroke-width="1.51"/><path d="M333,416L406,381L337,342Z" fill="rgb(58,85,91)" stroke="rgb(58,85,91)" stroke-width="1.51"/><path d="M168,148L134,129L132,221Z" fill="rgb(63,21,15)" stroke="rgb(63,21,15)" stroke-width="1.51"/><path d="M171,66L134,129L168,148Z" fill="rgb(80,25,19)" stroke="rgb(80,25,19)" stroke-width="1.51"/><path d="M171,66L168,148L263,104Z" fill="rgb(72,23,17)" stroke="rgb(72,23,17)" stroke-width="1.51"/><path d="M450,131L434,118L377,178Z" fill="rgb(54,42,40)" stroke="rgb(54,42,40)" stroke-width="1.51"/><path d="M503,206L450,131L434,253Z" fill="rgb(34,44,47)" stroke="rgb(34,44,47)" stroke-width="1.51"/><path d="M434,253L450,131L377,178Z" fill="rgb(32,36,37)" stroke="rgb(32,36,37)" stroke-width="1.51"/><path d="M456,51L405,81L434,118Z" fill="rgb(83,52,47)" stroke="rgb(83,52,47)" stroke-width="1.51"/><path d="M434,118L405,81L346,134Z" fill="rgb(62,39,36)" stroke="rgb(62,39,36)" stroke-width="1.51"/><path d="M282,5L235,46L320,78Z" fill="rgb(77,24,17)" stroke="rgb(77,24,17)" stroke-width="1.51"/><path d="M320,78L235,46L263,104Z" fill="rgb(65,22,16)" stroke="rgb(65,22,16)" stroke-width="1.51"/><path d="M172,346L171,408L261,389Z" fill="rgb(86,80,80)" stroke="rgb(86,80,80)" stroke-width="1.51"/><path d="M261,389L275,475L333,416Z" fill="rgb(58,79,84)" stroke="rgb(58,79,84)" stroke-width="1.51"/><path d="M75,324L169,288L151,266Z" fill="rgb(82,53,48)" stroke="rgb(82,53,48)" stroke-width="1.51"/><path d="M130,365L171,408L172,346Z" fill="rgb(99,82,79)" stroke="rgb(99,82,79)" stroke-width="1.51"/><path d="M235,46L171,66L263,104Z" fill="rgb(80,24,18)" stroke="rgb(80,24,18)" stroke-width="1.51"/><path d="M434,350L494,284L434,253Z" fill="rgb(53,77,82)" stroke="rgb(53,77,82)" stroke-width="1.51"/><path d="M498,365L494,284L434,350Z" fill="rgb(65,97,104)" stroke="rgb(65,97,104)" stroke-width="1.51"/><path d="M57,251L75,324L151,266Z" fill="rgb(90,51,45)" stroke="rgb(90,51,45)" stroke-width="1.51"/><path d="M134,129L77,179L132,221Z" fill="rgb(67,22,16)" stroke="rgb(67,22,16)" stroke-width="1.51"/><path d="M59,153L77,179L134,129Z" fill="rgb(83,25,18)" stroke="rgb(83,25,18)" stroke-width="1.51"/><path d="M494,284L503,206L434,253Z" fill="rgb(45,65,69)" stroke="rgb(45,65,69)" stroke-width="1.51"/><path d="M130,365L120,387L171,408Z" fill="rgb(109,89,86)" stroke="rgb(109,89,86)" stroke-width="1.51"/><path d="M75,324L120,387L130,365Z" fill="rgb(111,80,75)" stroke="rgb(111,80,75)" stroke-width="1.51"/><path d="M57,251L151,266L132,221Z" fill="rgb(73,37,31)" stroke="rgb(73,37,31)" stroke-width="1.51"/><path d="M77,179L57,251L132,221Z" fill="rgb(70,28,22)" stroke="rgb(70,28,22)" stroke-width="1.51"/><path d="M126,-1L116,47L171,66Z" fill="rgb(120,28,23)" stroke="rgb(120,28,23)" stroke-width="1.51"/><path d="M321,-19L282,5L320,78Z" fill="rgb(82,26,20)" stroke="rgb(82,26,20)" stroke-width="1.51"/><path d="M168,497L275,475L171,408Z" fill="rgb(91,88,88)" stroke="rgb(91,88,88)" stroke-width="1.51"/><path d="M171,408L275,475L261,389Z" fill="rgb(79,85,86)" stroke="rgb(79,85,86)" stroke-width="1.51"/><path d="M333,416L389,463L406,381Z" fill="rgb(66,98,105)" stroke="rgb(66,98,105)" stroke-width="1.51"/><path d="M77,179L-10,186L57,251Z" fill="rgb(79,26,20)" stroke="rgb(79,26,20)" stroke-width="1.51"/><path d="M44,63L59,153L134,129Z" fill="rgb(103,27,21)" stroke="rgb(103,27,21)" stroke-width="1.51"/><path d="M494,284L533,265L503,206Z" fill="rgb(51,75,80)" stroke="rgb(51,75,80)" stroke-width="1.51"/><path d="M493,407L498,365L434,350Z" fill="rgb(75,114,123)" stroke="rgb(75,114,123)" stroke-width="1.51"/><path d="M493,407L434,350L406,381Z" fill="rgb(72,108,116)" stroke="rgb(72,108,116)" stroke-width="1.51"/><path d="M529,369L533,265L494,284Z" fill="rgb(66,99,105)" stroke="rgb(66,99,105)" stroke-width="1.51"/><path d="M318,504L389,463L333,416Z" fill="rgb(61,90,96)" stroke="rgb(61,90,96)" stroke-width="1.51"/><path d="M450,131L456,51L434,118Z" fill="rgb(78,53,49)" stroke="rgb(78,53,49)" stroke-width="1.51"/><path d="M405,81L380,-3L320,78Z" fill="rgb(83,39,33)" stroke="rgb(83,39,33)" stroke-width="1.51"/><path d="M555,60L456,51L450,131Z" fill="rgb(96,66,61)" stroke="rgb(96,66,61)" stroke-width="1.51"/><path d="M569,157L450,131L503,206Z" fill="rgb(59,59,60)" stroke="rgb(59,59,60)" stroke-width="1.51"/><path d="M171,66L116,47L134,129Z" fill="rgb(100,27,21)" stroke="rgb(100,27,21)" stroke-width="1.51"/><path d="M208,-10L171,66L235,46Z" fill="rgb(102,26,21)" stroke="rgb(102,26,21)" stroke-width="1.51"/><path d="M456,51L380,-3L405,81Z" fill="rgb(98,52,44)" stroke="rgb(98,52,44)" stroke-width="1.51"/><path d="M380,-3L321,-19L320,78Z" fill="rgb(90,35,27)" stroke="rgb(90,35,27)" stroke-width="1.51"/><path d="M282,5L208,-10L235,46Z" fill="rgb(99,26,21)" stroke="rgb(99,26,21)" stroke-width="1.51"/><path d="M290,-72L208,-10L282,5Z" fill="rgb(100,26,21)" stroke="rgb(100,26,21)" stroke-width="1.51"/><path d="M498,365L529,369L494,284Z" fill="rgb(72,108,116)" stroke="rgb(72,108,116)" stroke-width="1.51"/><path d="M470,451L493,407L406,381Z" fill="rgb(78,120,129)" stroke="rgb(78,120,129)" stroke-width="1.51"/><path d="M389,463L470,451L406,381Z" fill="rgb(73,111,118)" stroke="rgb(73,111,118)" stroke-width="1.51"/><path d="M275,475L318,504L333,416Z" fill="rgb(55,80,85)" stroke="rgb(55,80,85)" stroke-width="1.51"/><path d="M168,497L318,504L275,475Z" fill="rgb(73,83,85)" stroke="rgb(73,83,85)" stroke-width="1.51"/><path d="M115,473L168,497L171,408Z" fill="rgb(110,93,91)" stroke="rgb(110,93,91)" stroke-width="1.51"/><path d="M75,324L65,398L120,387Z" fill="rgb(122,87,81)" stroke="rgb(122,87,81)" stroke-width="1.51"/><path d="M-31,312L65,398L75,324Z" fill="rgb(130,81,73)" stroke="rgb(130,81,73)" stroke-width="1.51"/><path d="M493,407L529,369L498,365Z" fill="rgb(82,126,135)" stroke="rgb(82,126,135)" stroke-width="1.51"/><path d="M533,265L562,210L503,206Z" fill="rgb(49,71,76)" stroke="rgb(49,71,76)" stroke-width="1.51"/><path d="M598,273L562,210L533,265Z" fill="rgb(59,88,94)" stroke="rgb(59,88,94)" stroke-width="1.51"/><path d="M318,504L470,451L389,463Z" fill="rgb(68,102,109)" stroke="rgb(68,102,109)" stroke-width="1.51"/><path d="M493,407L559,394L529,369Z" fill="rgb(88,135,146)" stroke="rgb(88,135,146)" stroke-width="1.51"/><path d="M115,473L171,408L120,387Z" fill="rgb(116,95,91)" stroke="rgb(116,95,91)" stroke-width="1.51"/><path d="M116,47L44,63L134,129Z" fill="rgb(112,28,22)" stroke="rgb(112,28,22)" stroke-width="1.51"/><path d="M208,-10L126,-1L171,66Z" fill="rgb(119,29,23)" stroke="rgb(119,29,23)" stroke-width="1.51"/><path d="M74,453L115,473L120,387Z" fill="rgb(127,98,93)" stroke="rgb(127,98,93)" stroke-width="1.51"/><path d="M562,210L569,157L503,206Z" fill="rgb(50,65,69)" stroke="rgb(50,65,69)" stroke-width="1.51"/><path d="M38,-11L44,63L116,47Z" fill="rgb(144,30,26)" stroke="rgb(144,30,26)" stroke-width="1.51"/><path d="M59,153L-10,186L77,179Z" fill="rgb(88,26,19)" stroke="rgb(88,26,19)" stroke-width="1.51"/><path d="M57,251L-31,312L75,324Z" fill="rgb(114,62,54)" stroke="rgb(114,62,54)" stroke-width="1.51"/><path d="M-38,114L-10,186L59,153Z" fill="rgb(109,27,22)" stroke="rgb(109,27,22)" stroke-width="1.51"/><path d="M321,-19L290,-72L282,5Z" fill="rgb(90,25,19)" stroke="rgb(90,25,19)" stroke-width="1.51"/><path d="M208,-10L214,-87L126,-1Z" fill="rgb(124,29,23)" stroke="rgb(124,29,23)" stroke-width="1.51"/><path d="M380,-3L342,-59L321,-19Z" fill="rgb(101,39,31)" stroke="rgb(101,39,31)" stroke-width="1.51"/><path d="M419,-94L342,-59L380,-3Z" fill="rgb(109,47,39)" stroke="rgb(109,47,39)" stroke-width="1.51"/><path d="M494,7L380,-3L456,51Z" fill="rgb(116,62,53)" stroke="rgb(116,62,53)" stroke-width="1.51"/><path d="M65,398L74,453L120,387Z" fill="rgb(133,99,94)" stroke="rgb(133,99,94)" stroke-width="1.51"/><path d="M-4,418L74,453L65,398Z" fill="rgb(147,103,96)" stroke="rgb(147,103,96)" stroke-width="1.51"/><path d="M342,-59L290,-72L321,-19Z" fill="rgb(93,30,24)" stroke="rgb(93,30,24)" stroke-width="1.51"/><path d="M555,60L494,7L456,51Z" fill="rgb(120,75,68)" stroke="rgb(120,75,68)" stroke-width="1.51"/><path d="M562,210L611,180L569,157Z" fill="rgb(61,76,79)" stroke="rgb(61,76,79)" stroke-width="1.51"/><path d="M529,369L598,273L533,265Z" fill="rgb(70,106,114)" stroke="rgb(70,106,114)" stroke-width="1.51"/><path d="M529,369L638,360L598,273Z" fill="rgb(84,129,139)" stroke="rgb(84,129,139)" stroke-width="1.51"/><path d="M554,464L559,394L493,407Z" fill="rgb(92,142,153)" stroke="rgb(92,142,153)" stroke-width="1.51"/><path d="M569,157L555,60L450,131Z" fill="rgb(86,71,68)" stroke="rgb(86,71,68)" stroke-width="1.51"/><path d="M631,86L555,60L569,157Z" fill="rgb(107,89,87)" stroke="rgb(107,89,87)" stroke-width="1.51"/><path d="M-41,281L-31,312L57,251Z" fill="rgb(119,58,49)" stroke="rgb(119,58,49)" stroke-width="1.51"/><path d="M598,273L611,180L562,210Z" fill="rgb(57,83,89)" stroke="rgb(57,83,89)" stroke-width="1.51"/><path d="M-10,186L-41,281L57,251Z" fill="rgb(103,42,33)" stroke="rgb(103,42,33)" stroke-width="1.51"/><path d="M290,-72L214,-87L208,-10Z" fill="rgb(107,27,21)" stroke="rgb(107,27,21)" stroke-width="1.51"/><path d="M38,-11L13,46L44,63Z" fill="rgb(154,30,27)" stroke="rgb(154,30,27)" stroke-width="1.51"/><path d="M44,63L-38,114L59,153Z" fill="rgb(122,28,23)" stroke="rgb(122,28,23)" stroke-width="1.51"/><path d="M-10,186L-105,200L-41,281Z" fill="rgb(97,34,27)" stroke="rgb(97,34,27)" stroke-width="1.51"/><path d="M38,-11L116,47L126,-1Z" fill="rgb(145,29,26)" stroke="rgb(145,29,26)" stroke-width="1.51"/><path d="M74,453L-27,474L115,473Z" fill="rgb(144,102,96)" stroke="rgb(144,102,96)" stroke-width="1.51"/><path d="M-31,312L-4,418L65,398Z" fill="rgb(151,96,87)" stroke="rgb(151,96,87)" stroke-width="1.51"/><path d="M-27,474L-4,418L-64,459Z" fill="rgb(163,107,98)" stroke="rgb(163,107,98)" stroke-width="1.51"/><path d="M554,464L588,402L559,394Z" fill="rgb(97,151,162)" stroke="rgb(97,151,162)" stroke-width="1.51"/><path d="M559,394L638,360L529,369Z" fill="rgb(92,143,153)" stroke="rgb(92,143,153)" stroke-width="1.51"/><path d="M656,198L638,139L611,180Z" fill="rgb(71,82,85)" stroke="rgb(71,82,85)" stroke-width="1.51"/><path d="M13,46L-38,114L44,63Z" fill="rgb(143,30,26)" stroke="rgb(143,30,26)" stroke-width="1.51"/><path d="M470,451L554,464L493,407Z" fill="rgb(87,134,143)" stroke="rgb(87,134,143)" stroke-width="1.51"/><path d="M318,504L554,464L470,451Z" fill="rgb(77,118,126)" stroke="rgb(77,118,126)" stroke-width="1.51"/><path d="M-70,41L-93,111L-38,114Z" fill="rgb(138,29,25)" stroke="rgb(138,29,25)" stroke-width="1.51"/><path d="M112,-100L38,-11L126,-1Z" fill="rgb(151,29,26)" stroke="rgb(151,29,26)" stroke-width="1.51"/><path d="M342,-59L419,-94L290,-72Z" fill="rgb(101,39,31)" stroke="rgb(101,39,31)" stroke-width="1.51"/><path d="M290,-72L419,-94L214,-87Z" fill="rgb(91,27,21)" stroke="rgb(91,27,21)" stroke-width="1.51"/><path d="M494,7L480,-58L380,-3Z" fill="rgb(126,66,57)" stroke="rgb(126,66,57)" stroke-width="1.51"/><path d="M551,-10L480,-58L494,7Z" fill="rgb(140,82,73)" stroke="rgb(140,82,73)" stroke-width="1.51"/><path d="M480,-58L419,-94L380,-3Z" fill="rgb(120,60,50)" stroke="rgb(120,60,50)" stroke-width="1.51"/><path d="M555,60L551,-10L494,7Z" fill="rgb(137,86,78)" stroke="rgb(137,86,78)" stroke-width="1.51"/><path d="M635,14L551,-10L555,60Z" fill="rgb(147,99,91)" stroke="rgb(147,99,91)" stroke-width="1.51"/><path d="M656,198L611,180L598,273Z" fill="rgb(57,84,90)" stroke="rgb(57,84,90)" stroke-width="1.51"/><path d="M611,180L638,139L569,157Z" fill="rgb(78,85,86)" stroke="rgb(78,85,86)" stroke-width="1.51"/><path d="M668,271L656,198L598,273Z" fill="rgb(65,97,103)" stroke="rgb(65,97,103)" stroke-width="1.51"/><path d="M588,402L638,360L559,394Z" fill="rgb(98,153,164)" stroke="rgb(98,153,164)" stroke-width="1.51"/><path d="M607,452L638,360L588,402Z" fill="rgb(103,161,173)" stroke="rgb(103,161,173)" stroke-width="1.51"/><path d="M638,139L631,86L569,157Z" fill="rgb(96,89,89)" stroke="rgb(96,89,89)" stroke-width="1.51"/><path d="M635,14L631,86L705,65Z" fill="rgb(134,100,94)" stroke="rgb(134,100,94)" stroke-width="1.51"/><path d="M419,-94L112,-100L214,-87Z" fill="rgb(104,27,21)" stroke="rgb(104,27,21)" stroke-width="1.51"/><path d="M214,-87L112,-100L126,-1Z" fill="rgb(133,29,24)" stroke="rgb(133,29,24)" stroke-width="1.51"/><path d="M638,360L668,271L598,273Z" fill="rgb(78,119,127)" stroke="rgb(78,119,127)" stroke-width="1.51"/><path d="M638,360L694,368L668,271Z" fill="rgb(86,132,141)" stroke="rgb(86,132,141)" stroke-width="1.51"/><path d="M554,464L607,452L588,402Z" fill="rgb(100,156,167)" stroke="rgb(100,156,167)" stroke-width="1.51"/><path d="M-4,418L-27,474L74,453Z" fill="rgb(158,106,98)" stroke="rgb(158,106,98)" stroke-width="1.51"/><path d="M115,473L-27,474L168,497Z" fill="rgb(133,100,94)" stroke="rgb(133,100,94)" stroke-width="1.51"/><path d="M-95,365L-4,418L-31,312Z" fill="rgb(150,93,83)" stroke="rgb(150,93,83)" stroke-width="1.51"/><path d="M-38,114L-105,200L-10,186Z" fill="rgb(104,27,21)" stroke="rgb(104,27,21)" stroke-width="1.51"/><path d="M-114,280L-95,365L-31,312Z" fill="rgb(133,74,64)" stroke="rgb(133,74,64)" stroke-width="1.51"/><path d="M-93,111L-105,200L-38,114Z" fill="rgb(114,28,22)" stroke="rgb(114,28,22)" stroke-width="1.51"/><path d="M-70,41L13,46L-33,-40Z" fill="rgb(172,30,29)" stroke="rgb(172,30,29)" stroke-width="1.51"/><path d="M-70,41L-38,114L13,46Z" fill="rgb(148,29,26)" stroke="rgb(148,29,26)" stroke-width="1.51"/><path d="M-114,280L-31,312L-41,281Z" fill="rgb(123,62,53)" stroke="rgb(123,62,53)" stroke-width="1.51"/><path d="M-105,200L-114,280L-41,281Z" fill="rgb(109,48,39)" stroke="rgb(109,48,39)" stroke-width="1.51"/><path d="M-95,365L-79,413L-4,418Z" fill="rgb(162,107,98)" stroke="rgb(162,107,98)" stroke-width="1.51"/><path d="M-33,-40L13,46L38,-11Z" fill="rgb(178,29,29)" stroke="rgb(178,29,29)" stroke-width="1.51"/><path d="M631,86L635,14L555,60Z" fill="rgb(135,100,94)" stroke="rgb(135,100,94)" stroke-width="1.51"/><path d="M551,-10L553,-80L480,-58Z" fill="rgb(145,87,78)" stroke="rgb(145,87,78)" stroke-width="1.51"/><path d="M480,-58L553,-80L419,-94Z" fill="rgb(134,75,66)" stroke="rgb(134,75,66)" stroke-width="1.51"/><path d="M705,65L631,86L638,139Z" fill="rgb(112,94,91)" stroke="rgb(112,94,91)" stroke-width="1.51"/><path d="M704,153L638,139L656,198Z" fill="rgb(76,84,86)" stroke="rgb(76,84,86)" stroke-width="1.51"/><path d="M39,-100L7,-68L38,-11Z" fill="rgb(171,30,28)" stroke="rgb(171,30,28)" stroke-width="1.51"/><path d="M624,-65L553,-80L551,-10Z" fill="rgb(157,100,91)" stroke="rgb(157,100,91)" stroke-width="1.51"/><path d="M-95,365L-64,459L-79,413Z" fill="rgb(163,107,98)" stroke="rgb(163,107,98)" stroke-width="1.51"/><path d="M-79,413L-64,459L-4,418Z" fill="rgb(163,107,98)" stroke="rgb(163,107,98)" stroke-width="1.51"/><path d="M112,-100L39,-100L38,-11Z" fill="rgb(160,29,27)" stroke="rgb(160,29,27)" stroke-width="1.51"/><path d="M-93,-97L-33,-40L7,-68Z" fill="rgb(180,29,29)" stroke="rgb(180,29,29)" stroke-width="1.51"/><path d="M7,-68L-33,-40L38,-11Z" fill="rgb(178,29,29)" stroke="rgb(178,29,29)" stroke-width="1.51"/><path d="M668,271L704,153L656,198Z" fill="rgb(55,81,86)" stroke="rgb(55,81,86)" stroke-width="1.51"/><path d="M692,425L694,368L638,360Z" fill="rgb(99,154,165)" stroke="rgb(99,154,165)" stroke-width="1.51"/><path d="M668,271L694,368L704,153Z" fill="rgb(69,103,111)" stroke="rgb(69,103,111)" stroke-width="1.51"/><path d="M-93,-97L-72,-21L-33,-40Z" fill="rgb(180,29,29)" stroke="rgb(180,29,29)" stroke-width="1.51"/><path d="M-33,-40L-72,-21L-70,41Z" fill="rgb(180,29,29)" stroke="rgb(180,29,29)" stroke-width="1.51"/><path d="M-70,41L-72,-21L-93,111Z" fill="rgb(159,29,27)" stroke="rgb(159,29,27)" stroke-width="1.51"/><path d="M607,452L692,425L638,360Z" fill="rgb(103,161,173)" stroke="rgb(103,161,173)" stroke-width="1.51"/><path d="M694,368L692,425L704,153Z" fill="rgb(82,125,133)" stroke="rgb(82,125,133)" stroke-width="1.51"/><path d="M635,14L624,-65L551,-10Z" fill="rgb(163,107,98)" stroke="rgb(163,107,98)" stroke-width="1.51"/><path d="M704,153L705,65L638,139Z" fill="rgb(101,90,89)" stroke="rgb(101,90,89)" stroke-width="1.51"/><path d="M689,-11L624,-65L635,14Z" fill="rgb(163,107,98)" stroke="rgb(163,107,98)" stroke-width="1.51"/><path d="M607,452L685,476L692,425Z" fill="rgb(103,161,173)" stroke="rgb(103,161,173)" stroke-width="1.51"/><path d="M554,464L685,476L607,452Z" fill="rgb(103,161,173)" stroke="rgb(103,161,173)" stroke-width="1.51"/><path d="M318,504L685,476L554,464Z" fill="rgb(89,138,148)" stroke="rgb(89,138,148)" stroke-width="1.51"/><path d="M705,65L689,-11L635,14Z" fill="rgb(151,104,97)" stroke="rgb(151,104,97)" stroke-width="1.51"/><path d="M39,-100L-93,-97L7,-68Z" fill="rgb(180,29,29)" stroke="rgb(180,29,29)" stroke-width="1.51"/><path d="M-72,-21L-93,-97L-93,111Z" fill="rgb(180,29,29)" stroke="rgb(180,29,29)" stroke-width="1.51"/><path d="M-93,111L-93,-97L-105,200Z" fill="rgb(146,30,26)" stroke="rgb(146,30,26)" stroke-width="1.51"/><path d="M-105,200L-93,-97L-114,280Z" fill="rgb(121,28,23)" stroke="rgb(121,28,23)" stroke-width="1.51"/><path d="M705,65L711,-101L689,-11Z" fill="rgb(163,107,98)" stroke="rgb(163,107,98)" stroke-width="1.51"/><path d="M689,-11L711,-101L624,-65Z" fill="rgb(163,107,98)" stroke="rgb(163,107,98)" stroke-width="1.51"/><path d="M624,-65L711,-101L553,-80Z" fill="rgb(163,107,98)" stroke="rgb(163,107,98)" stroke-width="1.51"/><path d="M553,-80L711,-101L419,-94Z" fill="rgb(153,96,87)" stroke="rgb(153,96,87)" stroke-width="1.51"/><path d="M419,-94L711,-101L112,-100Z" fill="rgb(117,56,48)" stroke="rgb(117,56,48)" stroke-width="1.51"/><path d="M112,-100L711,-101L39,-100Z" fill="rgb(92,26,20)" stroke="rgb(92,26,20)" stroke-width="1.51"/><path d="M704,153L711,-101L705,65Z" fill="rgb(142,102,95)" stroke="rgb(142,102,95)" stroke-width="1.51"/></svg>